<svg width="20" height="20" viewBox="0 0 20 20" fill="none" xmlns="http://www.w3.org/2000/svg">
<path d="M7.9435 10.7254L7.686 11.7563C7.56766 12.2279 7.24933 12.6254 6.81433 12.8429L5.53766 13.4813C4.66766 13.9163 4.031 14.7096 3.79433 15.6538L3.3335 17.4996H16.6668L16.2052 15.6538C15.9693 14.7096 15.3327 13.9163 14.4618 13.4813L13.186 12.8429C12.751 12.6254 12.4318 12.2279 12.3143 11.7563L12.0568 10.7254M11.0002 11.75C10.4077 12.1942 9.59266 12.1942 9.00016 11.75C7.531 10.6483 6.66683 8.91918 6.66683 7.08334V6.66668C6.66683 4.82584 8.15933 3.33334 10.0002 3.33334C11.841 3.33334 13.3335 4.82584 13.3335 6.66668V7.08334C13.3335 8.91918 12.4685 10.6483 11.0002 11.75Z" stroke="#A4C8FF" stroke-linecap="round" stroke-linejoin="round"/>
</svg>
