<svg width="20" height="20" viewBox="0 0 20 20" fill="none" xmlns="http://www.w3.org/2000/svg">
<path d="M8.33333 15.8333C8.33333 16.75 9.08333 17.5 10 17.5C10.9167 17.5 11.6667 16.75 11.6667 15.8333M17.4992 15.8325C15.8992 14.2325 15 12.0617 15 9.79833V9.16667C15 6.98 13.5933 5.12583 11.6383 4.44667C11.6533 4.35583 11.6667 4.2625 11.6667 4.16667C11.6667 3.24583 10.92 2.5 10 2.5C9.07917 2.5 8.33333 3.24583 8.33333 4.16667C8.33333 4.2625 8.34667 4.35583 8.36167 4.44667C6.40583 5.12583 5 6.98 5 9.16667V9.79833C5 12.0617 4.10083 14.2325 2.50083 15.8325L2.5 15.8333H17.5L17.4992 15.8325Z" stroke="#A4C8FF" stroke-linecap="round" stroke-linejoin="round"/>
</svg>
