<svg width="20" height="20" viewBox="0 0 20 20" fill="none" xmlns="http://www.w3.org/2000/svg">
<path d="M13.0212 10.043C13.0212 10.6405 12.844 11.2246 12.512 11.7214C12.1801 12.2183 11.7082 12.6055 11.1562 12.8341C10.6042 13.0628 9.99674 13.1226 9.4107 13.006C8.82467 12.8895 8.28637 12.6017 7.86386 12.1792C7.44135 11.7567 7.15362 11.2184 7.03705 10.6324C6.92049 10.0464 6.98031 9.43893 7.20897 8.8869C7.43763 8.33487 7.82485 7.86304 8.32166 7.53108C8.81848 7.19912 9.40257 7.02193 10.0001 7.02193C10.8013 7.02193 11.5698 7.34023 12.1363 7.90679C12.7029 8.47335 13.0212 9.24178 13.0212 10.043Z" fill="#959EB3"/>
<path d="M16.7863 6.05121L16.2951 5.76828C16.3693 5.47475 16.3693 5.16737 16.2951 4.87384L16.7863 4.5909C16.843 4.55821 16.8926 4.51468 16.9325 4.4628C16.9723 4.41092 17.0016 4.3517 17.0185 4.28852C17.0355 4.22534 17.0398 4.15944 17.0313 4.09459C17.0228 4.02973 17.0015 3.96719 16.9689 3.91053C16.9362 3.85387 16.8926 3.8042 16.8408 3.76436C16.7889 3.72453 16.7297 3.6953 16.6665 3.67835C16.6033 3.6614 16.5374 3.65706 16.4725 3.66558C16.4077 3.67409 16.3451 3.6953 16.2885 3.72799L15.7965 4.01258C15.5797 3.80176 15.314 3.64809 15.0232 3.56536V2.99783C15.0232 2.8658 14.9707 2.73917 14.8773 2.64581C14.784 2.55245 14.6574 2.5 14.5253 2.5C14.3933 2.5 14.2667 2.55245 14.1733 2.64581C14.0799 2.73917 14.0275 2.8658 14.0275 2.99783V3.56536C13.7367 3.64809 13.4709 3.80176 13.2542 4.01258L12.7622 3.72799C12.6477 3.66197 12.5118 3.64412 12.3842 3.67835C12.2566 3.71258 12.1478 3.7961 12.0818 3.91053C12.0158 4.02496 11.9979 4.16093 12.0322 4.28852C12.0664 4.41611 12.1499 4.52488 12.2643 4.5909L12.7555 4.87384C12.6814 5.16737 12.6814 5.47475 12.7555 5.76828L12.2643 6.05121C12.1499 6.11723 12.0664 6.226 12.0322 6.3536C11.9979 6.48119 12.0158 6.61716 12.0818 6.73159C12.1478 6.84602 12.2566 6.92953 12.3842 6.96377C12.5118 6.998 12.6477 6.98014 12.7622 6.91413L13.2542 6.62953C13.4709 6.84035 13.7367 6.99402 14.0275 7.07675V7.64428C14.0275 7.77631 14.0799 7.90294 14.1733 7.9963C14.2667 8.08967 14.3933 8.14212 14.5253 8.14212C14.6574 8.14212 14.784 8.08967 14.8773 7.9963C14.9707 7.90294 15.0232 7.77631 15.0232 7.64428V7.07675C15.314 6.99402 15.5797 6.84035 15.7965 6.62953L16.2885 6.91413C16.3451 6.94681 16.4077 6.96802 16.4725 6.97654C16.5374 6.98506 16.6033 6.98072 16.6665 6.96377C16.7297 6.94682 16.7889 6.91759 16.8408 6.87775C16.8926 6.83791 16.9362 6.78825 16.9689 6.73159C17.0015 6.67493 17.0228 6.61238 17.0313 6.54753C17.0398 6.48267 17.0355 6.41677 17.0185 6.3536C17.0016 6.29042 16.9723 6.23119 16.9325 6.17931C16.8926 6.12743 16.843 6.0839 16.7863 6.05121ZM14.5253 6.15078C14.3612 6.15078 14.2008 6.10212 14.0644 6.01095C13.9279 5.91978 13.8216 5.79019 13.7588 5.63858C13.696 5.48697 13.6795 5.32014 13.7115 5.15919C13.7436 4.99824 13.8226 4.85039 13.9386 4.73435C14.0547 4.61832 14.2025 4.53929 14.3635 4.50728C14.5244 4.47526 14.6912 4.49169 14.8428 4.55449C14.9945 4.61729 15.124 4.72364 15.2152 4.86009C15.3064 4.99653 15.355 5.15695 15.355 5.32106C15.355 5.54111 15.2676 5.75216 15.112 5.90776C14.9564 6.06336 14.7454 6.15078 14.5253 6.15078Z" fill="#959EB3"/>
<path fill-rule="evenodd" clip-rule="evenodd" d="M6.30219 5.87377C6.54939 6.09808 6.56795 6.48031 6.34365 6.72751C5.54819 7.60415 5.06426 8.76643 5.06426 10.0431C5.06426 11.3199 5.54819 12.4821 6.34365 13.3588C6.56795 13.606 6.54939 13.9882 6.30219 14.2125C6.05499 14.4368 5.67276 14.4183 5.44845 14.1711C4.45908 13.0807 3.85547 11.6317 3.85547 10.0431C3.85547 8.45457 4.45908 7.00557 5.44846 5.91522C5.67276 5.66802 6.05499 5.64946 6.30219 5.87377ZM15.3796 8.58075C15.7094 8.52903 16.0187 8.75444 16.0704 9.0842C16.1194 9.39701 16.1448 9.71731 16.1448 10.0431C16.1448 11.6317 15.5412 13.0807 14.5519 14.1711C14.3276 14.4183 13.9453 14.4368 13.6981 14.2125C13.4509 13.9882 13.4324 13.606 13.6567 13.3588C14.4521 12.4821 14.9361 11.3199 14.9361 10.0431C14.9361 9.78025 14.9156 9.52257 14.8762 9.27149C14.8245 8.94173 15.0499 8.63247 15.3796 8.58075Z" fill="#959EB3"/>
<path fill-rule="evenodd" clip-rule="evenodd" d="M4.12448 3.78584C4.36948 4.01254 4.38433 4.39493 4.15763 4.63994C2.84418 6.05948 2.04229 7.95692 2.04229 10.043C2.04229 12.1291 2.84418 14.0266 4.15763 15.4461C4.38433 15.6911 4.36948 16.0735 4.12448 16.3002C3.87947 16.5269 3.49707 16.5121 3.27037 16.267C1.75837 14.6329 0.833496 12.4453 0.833496 10.043C0.833496 7.64074 1.75837 5.45312 3.27037 3.81899C3.49707 3.57398 3.87947 3.55914 4.12448 3.78584ZM17.9973 6.91801C18.316 6.8188 18.6548 6.99675 18.754 7.31546C19.0224 8.1778 19.1668 9.09411 19.1668 10.043C19.1668 12.4453 18.2419 14.6329 16.7299 16.267C16.5033 16.5121 16.1209 16.5269 15.8758 16.3002C15.6308 16.0735 15.616 15.6911 15.8427 15.4461C17.1561 14.0266 17.958 12.1291 17.958 10.043C17.958 9.21732 17.8325 8.42207 17.5999 7.67472C17.5006 7.35601 17.6786 7.01721 17.9973 6.91801Z" fill="#959EB3"/>
</svg>
