<svg width="20" height="15" viewBox="0 0 20 15" fill="none" xmlns="http://www.w3.org/2000/svg">
<path d="M13.0212 8.04257C13.0212 8.64008 12.844 9.22417 12.512 9.72099C12.1801 10.2178 11.7082 10.605 11.1562 10.8337C10.6042 11.0623 9.99674 11.1222 9.4107 11.0056C8.82467 10.889 8.28637 10.6013 7.86386 10.1788C7.44135 9.75629 7.15362 9.21798 7.03705 8.63195C6.92049 8.04592 6.98031 7.43848 7.20897 6.88645C7.43763 6.33442 7.82485 5.86259 8.32166 5.53063C8.81848 5.19867 9.40257 5.02148 10.0001 5.02148C10.8013 5.02148 11.5698 5.33978 12.1363 5.90634C12.7029 6.4729 13.0212 7.24133 13.0212 8.04257Z" fill="#A4C8FF"/>
<path d="M16.7863 4.05121L16.2951 3.76828C16.3693 3.47475 16.3693 3.16737 16.2951 2.87384L16.7863 2.5909C16.843 2.55821 16.8926 2.51468 16.9325 2.4628C16.9723 2.41092 17.0016 2.3517 17.0185 2.28852C17.0355 2.22534 17.0398 2.15944 17.0313 2.09459C17.0228 2.02973 17.0015 1.96719 16.9689 1.91053C16.9362 1.85387 16.8926 1.8042 16.8408 1.76436C16.7889 1.72453 16.7297 1.6953 16.6665 1.67835C16.6033 1.6614 16.5374 1.65706 16.4725 1.66558C16.4077 1.67409 16.3451 1.6953 16.2885 1.72799L15.7965 2.01258C15.5797 1.80176 15.314 1.64809 15.0232 1.56536V0.997834C15.0232 0.8658 14.9707 0.739174 14.8773 0.645812C14.784 0.55245 14.6574 0.5 14.5253 0.5C14.3933 0.5 14.2667 0.55245 14.1733 0.645812C14.0799 0.739174 14.0275 0.8658 14.0275 0.997834V1.56536C13.7367 1.64809 13.4709 1.80176 13.2542 2.01258L12.7622 1.72799C12.6477 1.66197 12.5118 1.64412 12.3842 1.67835C12.2566 1.71258 12.1478 1.7961 12.0818 1.91053C12.0158 2.02496 11.9979 2.16093 12.0322 2.28852C12.0664 2.41611 12.1499 2.52488 12.2643 2.5909L12.7555 2.87384C12.6814 3.16737 12.6814 3.47475 12.7555 3.76828L12.2643 4.05121C12.1499 4.11723 12.0664 4.226 12.0322 4.3536C11.9979 4.48119 12.0158 4.61716 12.0818 4.73159C12.1478 4.84602 12.2566 4.92953 12.3842 4.96377C12.5118 4.998 12.6477 4.98014 12.7622 4.91413L13.2542 4.62953C13.4709 4.84035 13.7367 4.99402 14.0275 5.07675V5.64428C14.0275 5.77631 14.0799 5.90294 14.1733 5.9963C14.2667 6.08967 14.3933 6.14212 14.5253 6.14212C14.6574 6.14212 14.784 6.08967 14.8773 5.9963C14.9707 5.90294 15.0232 5.77631 15.0232 5.64428V5.07675C15.314 4.99402 15.5797 4.84035 15.7965 4.62953L16.2885 4.91413C16.3451 4.94681 16.4077 4.96802 16.4725 4.97654C16.5374 4.98506 16.6033 4.98072 16.6665 4.96377C16.7297 4.94682 16.7889 4.91759 16.8408 4.87775C16.8926 4.83791 16.9362 4.78825 16.9689 4.73159C17.0015 4.67493 17.0228 4.61238 17.0313 4.54753C17.0398 4.48267 17.0355 4.41677 17.0185 4.3536C17.0016 4.29042 16.9723 4.23119 16.9325 4.17931C16.8926 4.12743 16.843 4.0839 16.7863 4.05121ZM14.5253 4.15078C14.3612 4.15078 14.2008 4.10212 14.0644 4.01095C13.9279 3.91978 13.8216 3.79019 13.7588 3.63858C13.696 3.48697 13.6795 3.32014 13.7115 3.15919C13.7436 2.99824 13.8226 2.85039 13.9386 2.73435C14.0547 2.61832 14.2025 2.53929 14.3635 2.50728C14.5244 2.47526 14.6912 2.49169 14.8428 2.55449C14.9945 2.61729 15.124 2.72364 15.2152 2.86009C15.3064 2.99653 15.355 3.15695 15.355 3.32106C15.355 3.54111 15.2676 3.75216 15.112 3.90776C14.9564 4.06336 14.7454 4.15078 14.5253 4.15078Z" fill="#A4C8FF"/>
<path fill-rule="evenodd" clip-rule="evenodd" d="M6.30219 3.8736C6.54939 4.09791 6.56795 4.48014 6.34365 4.72734C5.54819 5.60398 5.06426 6.76626 5.06426 8.04297C5.06426 9.31969 5.54819 10.482 6.34365 11.3586C6.56795 11.6058 6.54939 11.988 6.30219 12.2123C6.05499 12.4366 5.67276 12.4181 5.44845 12.1709C4.45908 11.0805 3.85547 9.63154 3.85547 8.04297C3.85547 6.4544 4.45908 5.0054 5.44846 3.91505C5.67276 3.66785 6.05499 3.64929 6.30219 3.8736ZM15.3796 6.58058C15.7094 6.52887 16.0187 6.75427 16.0704 7.08404C16.1194 7.39684 16.1448 7.71714 16.1448 8.04297C16.1448 9.63154 15.5412 11.0805 14.5519 12.1709C14.3276 12.4181 13.9453 12.4366 13.6981 12.2123C13.4509 11.988 13.4324 11.6058 13.6567 11.3586C14.4521 10.482 14.9361 9.31969 14.9361 8.04297C14.9361 7.78009 14.9156 7.5224 14.8762 7.27133C14.8245 6.94156 15.0499 6.6323 15.3796 6.58058Z" fill="#A4C8FF"/>
<path fill-rule="evenodd" clip-rule="evenodd" d="M4.12448 1.78577C4.36948 2.01247 4.38433 2.39486 4.15763 2.63987C2.84418 4.05941 2.04229 5.95686 2.04229 8.04295C2.04229 10.129 2.84418 12.0265 4.15763 13.446C4.38433 13.691 4.36948 14.0734 4.12448 14.3001C3.87947 14.5268 3.49707 14.512 3.27037 14.267C1.75837 12.6328 0.833496 10.4452 0.833496 8.04295C0.833496 5.64067 1.75837 3.45305 3.27037 1.81893C3.49707 1.57392 3.87947 1.55907 4.12448 1.78577ZM17.9973 4.91794C18.316 4.81873 18.6548 4.99668 18.754 5.31539C19.0224 6.17773 19.1668 7.09404 19.1668 8.04295C19.1668 10.4452 18.2419 12.6328 16.7299 14.267C16.5033 14.512 16.1209 14.5268 15.8758 14.3001C15.6308 14.0734 15.616 13.691 15.8427 13.446C17.1561 12.0265 17.958 10.129 17.958 8.04295C17.958 7.21725 17.8325 6.42201 17.5999 5.67465C17.5006 5.35594 17.6786 5.01715 17.9973 4.91794Z" fill="#A4C8FF"/>
</svg>
