<svg width="40" height="40" viewBox="0 0 40 40" fill="none" xmlns="http://www.w3.org/2000/svg">
<path d="M15.887 21.4512L15.372 23.5128C15.1353 24.4562 14.4987 25.2512 13.6287 25.6862L11.0753 26.9628C9.33533 27.8328 8.062 29.4195 7.58867 31.3078L6.667 34.9995H33.3337L32.4103 31.3078C31.9387 29.4195 30.6653 27.8328 28.9237 26.9628L26.372 25.6862C25.502 25.2512 24.8637 24.4562 24.6287 23.5128L24.1137 21.4512M22.0003 23.5003C20.8153 24.3887 19.1853 24.3887 18.0003 23.5003C15.062 21.297 13.3337 17.8387 13.3337 14.167V13.3337C13.3337 9.65199 16.3187 6.66699 20.0003 6.66699C23.682 6.66699 26.667 9.65199 26.667 13.3337V14.167C26.667 17.8387 24.937 21.297 22.0003 23.5003Z" stroke="#4560E4" stroke-linecap="round" stroke-linejoin="round"/>
</svg>
