<svg width="20" height="20" viewBox="0 0 20 20" fill="none" xmlns="http://www.w3.org/2000/svg">
<path d="M13.1301 10.0106C13.1301 10.6286 12.9468 11.2328 12.6034 11.7467C12.26 12.2606 11.772 12.6612 11.201 12.8977C10.6299 13.1342 10.0016 13.1961 9.39542 13.0755C8.78923 12.9549 8.23241 12.6573 7.79537 12.2203C7.35833 11.7832 7.0607 11.2264 6.94012 10.6202C6.81954 10.014 6.88143 9.3857 7.11795 8.81468C7.35448 8.24366 7.75502 7.75561 8.26892 7.41223C8.78282 7.06885 9.38701 6.88557 10.0051 6.88557C10.8339 6.88557 11.6287 7.21481 12.2148 7.80086C12.8008 8.38691 13.1301 9.18177 13.1301 10.0106ZM16.2551 10.0106C16.257 8.47296 15.6901 6.98898 14.6637 5.84416C14.6094 5.78151 14.5431 5.7303 14.4688 5.6935C14.3945 5.65669 14.3137 5.63504 14.2309 5.6298C14.1482 5.62457 14.0652 5.63584 13.9869 5.66298C13.9085 5.69012 13.8363 5.73257 13.7746 5.78787C13.7128 5.84317 13.6626 5.91021 13.627 5.98508C13.5914 6.05996 13.571 6.14117 13.5671 6.22399C13.5632 6.30681 13.5758 6.38958 13.6042 6.46748C13.6326 6.54539 13.6761 6.61686 13.7324 6.67776C14.5523 7.59444 15.0055 8.78113 15.0055 10.011C15.0055 11.2408 14.5523 12.4275 13.7324 13.3442C13.625 13.4681 13.5706 13.6293 13.5809 13.793C13.5913 13.9568 13.6656 14.1098 13.7878 14.2192C13.91 14.3286 14.0704 14.3856 14.2342 14.3779C14.3981 14.3701 14.5523 14.2982 14.6637 14.1778C15.69 13.0325 16.2568 11.5484 16.2551 10.0106ZM6.27773 6.67776C6.33401 6.61686 6.3776 6.54539 6.40598 6.46748C6.43436 6.38958 6.44696 6.30681 6.44304 6.22399C6.43911 6.14117 6.41875 6.05996 6.38314 5.98508C6.34752 5.91021 6.29736 5.84317 6.23558 5.78787C6.17381 5.73257 6.10164 5.69012 6.0233 5.66298C5.94495 5.63584 5.86199 5.62457 5.77924 5.6298C5.6965 5.63504 5.61562 5.65669 5.54132 5.6935C5.46703 5.7303 5.40079 5.78151 5.34648 5.84416C4.32054 6.98959 3.75324 8.47325 3.75324 10.011C3.75324 11.5487 4.32054 13.0323 5.34648 14.1778C5.45782 14.2982 5.61206 14.3701 5.77591 14.3779C5.93977 14.3856 6.10011 14.3286 6.22233 14.2192C6.34456 14.1098 6.41887 13.9568 6.42923 13.793C6.4396 13.6293 6.38518 13.4681 6.27773 13.3442C5.45708 12.4279 5.00329 11.241 5.00329 10.011C5.00329 8.78089 5.45708 7.59405 6.27773 6.67776ZM18.6434 6.36526C18.1859 5.27896 17.5269 4.28912 16.7012 3.44807C16.6443 3.38722 16.5757 3.33836 16.4997 3.30437C16.4236 3.27038 16.3415 3.25194 16.2582 3.25015C16.1749 3.24835 16.0921 3.26323 16.0146 3.2939C15.9371 3.32458 15.8666 3.37044 15.8071 3.42878C15.7476 3.48712 15.7004 3.55677 15.6682 3.63363C15.636 3.71049 15.6195 3.793 15.6197 3.87632C15.6199 3.95965 15.6367 4.04209 15.6692 4.11881C15.7017 4.19553 15.7492 4.26498 15.809 4.32307C17.2986 5.84075 18.1332 7.88242 18.1332 10.009C18.1332 12.1356 17.2986 14.1773 15.809 15.6949C15.7513 15.7535 15.7058 15.8229 15.6749 15.8991C15.6441 15.9753 15.6285 16.0568 15.6292 16.139C15.6298 16.2212 15.6467 16.3024 15.6787 16.3781C15.7108 16.4538 15.7574 16.5224 15.816 16.5801C15.8746 16.6378 15.944 16.6833 16.0201 16.7142C16.0963 16.745 16.1779 16.7606 16.26 16.7599C16.3422 16.7593 16.4235 16.7424 16.4992 16.7104C16.5749 16.6783 16.6435 16.6317 16.7012 16.5731C17.9951 15.2517 18.8698 13.5775 19.2153 11.7607C19.5608 9.94387 19.3619 8.06545 18.6434 6.36135V6.36526ZM2.51836 13.1731C1.89386 11.6968 1.72042 10.0687 2.01989 8.49403C2.31937 6.91935 3.07836 5.46858 4.20117 4.32463C4.31741 4.20632 4.38189 4.04668 4.38042 3.88083C4.37896 3.71497 4.31167 3.5565 4.19336 3.44026C4.07505 3.32402 3.91541 3.25954 3.74955 3.261C3.5837 3.26247 3.42522 3.32976 3.30898 3.44807C1.58881 5.19926 0.625 7.55585 0.625 10.0106C0.625 12.4653 1.58881 14.8219 3.30898 16.5731C3.3659 16.6339 3.43441 16.6828 3.51048 16.7168C3.58656 16.7508 3.66866 16.7692 3.75196 16.771C3.83527 16.7728 3.91809 16.7579 3.99556 16.7272C4.07302 16.6966 4.14358 16.6507 4.20306 16.5924C4.26255 16.534 4.30977 16.4644 4.34195 16.3875C4.37413 16.3107 4.39062 16.2281 4.39044 16.1448C4.39026 16.0615 4.37343 15.979 4.34093 15.9023C4.30842 15.8256 4.26091 15.7562 4.20117 15.6981C3.48608 14.97 2.91511 14.1133 2.51836 13.1731Z" fill="#959EB3"/>
</svg>
