<svg width="40" height="40" viewBox="0 0 40 40" fill="none" xmlns="http://www.w3.org/2000/svg">
<path d="M26.0425 20.0861C26.0425 21.2811 25.6881 22.4493 25.0242 23.443C24.3603 24.4366 23.4166 25.211 22.3125 25.6683C21.2085 26.1257 19.9936 26.2453 18.8215 26.0122C17.6495 25.779 16.5729 25.2036 15.7278 24.3586C14.8828 23.5136 14.3074 22.4369 14.0742 21.2649C13.8411 20.0928 13.9607 18.8779 14.4181 17.7739C14.8754 16.6698 15.6498 15.7262 16.6435 15.0622C17.6371 14.3983 18.8053 14.0439 20.0003 14.0439C21.6028 14.0439 23.1396 14.6805 24.2728 15.8137C25.4059 16.9468 26.0425 18.4836 26.0425 20.0861Z" fill="#4560E4"/>
<path d="M33.5723 12.1024L32.5899 11.5366C32.7382 10.9495 32.7382 10.3347 32.5899 9.74767L33.5723 9.1818C33.6856 9.11643 33.7849 9.02937 33.8646 8.9256C33.9443 8.82184 34.0027 8.7034 34.0366 8.57704C34.0705 8.45068 34.0792 8.31889 34.0622 8.18917C34.0451 8.05946 34.0027 7.93438 33.9374 7.82106C33.872 7.70774 33.7849 7.6084 33.6812 7.52873C33.5774 7.44906 33.459 7.3906 33.3326 7.3567C33.2062 7.3228 33.0744 7.31412 32.9447 7.33115C32.815 7.34819 32.6899 7.3906 32.5766 7.45598L31.5926 8.02517C31.1591 7.60353 30.6276 7.29618 30.046 7.13073V5.99567C30.046 5.7316 29.9411 5.47835 29.7543 5.29162C29.5676 5.1049 29.3144 5 29.0503 5C28.7862 5 28.533 5.1049 28.3462 5.29162C28.1595 5.47835 28.0546 5.7316 28.0546 5.99567V7.13073C27.473 7.29618 26.9415 7.60353 26.508 8.02517L25.524 7.45598C25.2951 7.32395 25.0232 7.28823 24.768 7.3567C24.5128 7.42516 24.2953 7.5922 24.1632 7.82106C24.0312 8.04992 23.9955 8.32185 24.0639 8.57704C24.1324 8.83223 24.2994 9.04977 24.5283 9.1818L25.5107 9.74767C25.3623 10.3347 25.3623 10.9495 25.5107 11.5366L24.5283 12.1024C24.2994 12.2345 24.1324 12.452 24.0639 12.7072C23.9955 12.9624 24.0312 13.2343 24.1632 13.4632C24.2953 13.692 24.5128 13.8591 24.768 13.9275C25.0232 13.996 25.2951 13.9603 25.524 13.8283L26.508 13.2591C26.9415 13.6807 27.473 13.988 28.0546 14.1535V15.2886C28.0546 15.5526 28.1595 15.8059 28.3462 15.9926C28.533 16.1793 28.7862 16.2842 29.0503 16.2842C29.3144 16.2842 29.5676 16.1793 29.7543 15.9926C29.9411 15.8059 30.046 15.5526 30.046 15.2886V14.1535C30.6276 13.988 31.1591 13.6807 31.5926 13.2591L32.5766 13.8283C32.6899 13.8936 32.815 13.936 32.9447 13.9531C33.0744 13.9701 33.2062 13.9614 33.3326 13.9275C33.459 13.8936 33.5774 13.8352 33.6812 13.7555C33.7849 13.6758 33.872 13.5765 33.9374 13.4632C34.0027 13.3499 34.0451 13.2248 34.0622 13.0951C34.0792 12.9653 34.0705 12.8335 34.0366 12.7072C34.0027 12.5808 33.9443 12.4624 33.8646 12.3586C33.7849 12.2549 33.6856 12.1678 33.5723 12.1024ZM29.0503 12.3016C28.7221 12.3016 28.4012 12.2042 28.1283 12.0219C27.8555 11.8396 27.6428 11.5804 27.5172 11.2772C27.3916 10.9739 27.3587 10.6403 27.4227 10.3184C27.4868 9.99647 27.6448 9.70079 27.8769 9.46871C28.109 9.23663 28.4046 9.07858 28.7265 9.01455C29.0484 8.95052 29.3821 8.98339 29.6853 9.10899C29.9886 9.23459 30.2477 9.44728 30.4301 9.72017C30.6124 9.99307 30.7097 10.3139 30.7097 10.6421C30.7097 11.0822 30.5349 11.5043 30.2237 11.8155C29.9125 12.1267 29.4904 12.3016 29.0503 12.3016Z" fill="#4560E4"/>
<path fill-rule="evenodd" clip-rule="evenodd" d="M12.6044 11.7474C13.0988 12.1961 13.1359 12.9605 12.6873 13.4549C11.0964 15.2082 10.1285 17.5328 10.1285 20.0862C10.1285 22.6396 11.0964 24.9642 12.6873 26.7175C13.1359 27.2119 13.0988 27.9763 12.6044 28.4249C12.11 28.8735 11.3455 28.8364 10.8969 28.342C8.91817 26.1613 7.71094 23.2633 7.71094 20.0862C7.71094 16.909 8.91817 14.0111 10.8969 11.8304C11.3455 11.336 12.11 11.2988 12.6044 11.7474ZM30.7593 17.1614C31.4188 17.058 32.0373 17.5088 32.1407 18.1683C32.2389 18.7939 32.2897 19.4345 32.2897 20.0862C32.2897 23.2633 31.0825 26.1613 29.1037 28.342C28.6551 28.8364 27.8906 28.8735 27.3962 28.4249C26.9018 27.9763 26.8647 27.2119 27.3133 26.7175C28.9042 24.9642 29.8721 22.6396 29.8721 20.0862C29.8721 19.5604 29.8311 19.045 29.7524 18.5429C29.6489 17.8834 30.0997 17.2649 30.7593 17.1614Z" fill="#4560E4"/>
<path fill-rule="evenodd" clip-rule="evenodd" d="M8.24858 7.57179C8.7386 8.02518 8.76829 8.78997 8.31489 9.27999C5.68799 12.1191 4.08421 15.914 4.08421 20.0861C4.08421 24.2583 5.68799 28.0532 8.31489 30.8923C8.76829 31.3823 8.7386 32.1471 8.24858 32.6005C7.75857 33.0539 6.99378 33.0242 6.54038 32.5342C3.51638 29.2659 1.66663 24.8907 1.66663 20.0861C1.66663 15.2816 3.51638 10.9063 6.54038 7.63809C6.99378 7.14808 7.75857 7.11839 8.24858 7.57179ZM35.9943 13.8361C36.6317 13.6377 37.3093 13.9936 37.5077 14.631C38.0445 16.3557 38.3333 18.1883 38.3333 20.0861C38.3333 24.8907 36.4835 29.2659 33.4595 32.5342C33.0061 33.0242 32.2413 33.0539 31.7513 32.6005C31.2613 32.1471 31.2316 31.3823 31.685 30.8923C34.3119 28.0532 35.9157 24.2583 35.9157 20.0861C35.9157 18.4347 35.6646 16.8443 35.1993 15.3496C35.0009 14.7121 35.3568 14.0345 35.9943 13.8361Z" fill="#4560E4"/>
</svg>
