<svg width="56" height="56" viewBox="0 0 56 56" fill="none" xmlns="http://www.w3.org/2000/svg">
<rect width="56" height="56" rx="6" fill="#EEF1FF"/>
<path d="M13 42.9497V36.383C13 36.3554 13.0224 36.333 13.05 36.333H42.95C42.9776 36.333 43 36.3554 43 36.383V42.9497C43 42.9773 42.9776 42.9997 42.95 42.9997H13.05C13.0224 42.9997 13 42.9773 13 42.9497Z" stroke="#4560E4" stroke-width="1.5"/>
<path d="M13 31.2837V24.717C13 24.6894 13.0224 24.667 13.05 24.667H42.95C42.9776 24.667 43 24.6894 43 24.717V31.2837C43 31.3113 42.9776 31.3337 42.95 31.3337H13.05C13.0224 31.3337 13 31.3113 13 31.2837Z" stroke="#4560E4" stroke-width="1.5"/>
<path d="M13 19.6167V13.05C13 13.0224 13.0224 13 13.05 13H42.95C42.9776 13 43 13.0224 43 13.05V19.6167C43 19.6443 42.9776 19.6667 42.95 19.6667H13.05C13.0224 19.6667 13 19.6443 13 19.6167Z" stroke="#4560E4" stroke-width="1.5"/>
</svg>
