<svg width="16" height="16" viewBox="0 0 16 16" fill="none" xmlns="http://www.w3.org/2000/svg">
<path d="M0.5 15.4503V12.217C0.5 12.1894 0.522386 12.167 0.55 12.167H15.45C15.4776 12.167 15.5 12.1894 15.5 12.217V15.4503C15.5 15.4779 15.4776 15.5003 15.45 15.5003H0.55C0.522386 15.5003 0.5 15.4779 0.5 15.4503Z" stroke="#A4C8FF"/>
<path d="M0.5 9.61634V6.38301C0.5 6.35539 0.522386 6.33301 0.55 6.33301H15.45C15.4776 6.33301 15.5 6.35539 15.5 6.38301V9.61634C15.5 9.64396 15.4776 9.66634 15.45 9.66634H0.55C0.522386 9.66634 0.5 9.64396 0.5 9.61634Z" stroke="#A4C8FF"/>
<path d="M0.5 3.78333V0.55C0.5 0.522386 0.522386 0.5 0.55 0.5H15.45C15.4776 0.5 15.5 0.522386 15.5 0.55V3.78333C15.5 3.81095 15.4776 3.83333 15.45 3.83333H0.55C0.522386 3.83333 0.5 3.81095 0.5 3.78333Z" stroke="#A4C8FF"/>
</svg>
