<svg width="20" height="20" viewBox="0 0 20 20" fill="none" xmlns="http://www.w3.org/2000/svg">
<path d="M2.5 17.45V14.2167C2.5 14.1891 2.52239 14.1667 2.55 14.1667H17.45C17.4776 14.1667 17.5 14.1891 17.5 14.2167V17.45C17.5 17.4776 17.4776 17.5 17.45 17.5H2.55C2.52239 17.5 2.5 17.4776 2.5 17.45Z" stroke="#959EB3"/>
<path d="M2.5 11.6167V8.38333C2.5 8.35572 2.52239 8.33333 2.55 8.33333H17.45C17.4776 8.33333 17.5 8.35572 17.5 8.38333V11.6167C17.5 11.6443 17.4776 11.6667 17.45 11.6667H2.55C2.52239 11.6667 2.5 11.6443 2.5 11.6167Z" stroke="#959EB3"/>
<path d="M2.5 5.78333V2.55C2.5 2.52239 2.52239 2.5 2.55 2.5H17.45C17.4776 2.5 17.5 2.52239 17.5 2.55V5.78333C17.5 5.81095 17.4776 5.83333 17.45 5.83333H2.55C2.52239 5.83333 2.5 5.81095 2.5 5.78333Z" stroke="#959EB3"/>
</svg>
