<svg width="21" height="15" viewBox="0 0 21 15" fill="none" xmlns="http://www.w3.org/2000/svg">
<path d="M5.426 8.0812L5.123 9.4472C5.046 9.7892 4.796 10.0672 4.463 10.1792L2.948 10.6832C2.351 10.8822 1.883 11.3512 1.683 11.9482L1 13.9992H13L12.316 11.9482C12.117 11.3512 11.648 10.8822 11.051 10.6832L9.537 10.1792C9.204 10.0672 8.953 9.7892 8.877 9.4472L8.573 8.0782M12.6662 12.9997H19.9992L19.2622 10.7857C19.0942 10.2827 18.7332 9.8667 18.2582 9.6287L17.4682 9.2337C17.1752 9.0867 16.9722 8.8057 16.9252 8.4807L16.8192 7.7367M14.1799 7.7394L14.0739 8.4814C14.0279 8.8054 13.8249 9.0874 13.5309 9.2344L12.7409 9.6294C12.2659 9.8664 11.9059 10.2824 11.7379 10.7854L11.6609 11.0144M7.8996 8.695C7.3676 9.1 6.6316 9.1 6.0996 8.695C4.7766 7.687 3.9996 6.118 3.9996 4.455V4C3.9996 2.343 5.3426 1 6.9996 1C8.6566 1 9.9996 2.343 9.9996 4V4.455C9.9996 6.118 9.2226 7.687 7.8996 8.695ZM16.2497 8.2521C15.8047 8.5831 15.1947 8.5831 14.7497 8.2521C13.6487 7.4341 12.9997 6.1441 12.9997 4.7721V4.5001C12.9997 3.1191 14.1187 2.0001 15.4997 2.0001C16.8807 2.0001 17.9997 3.1191 17.9997 4.5001V4.7721C17.9997 6.1441 17.3507 7.4341 16.2497 8.2521Z" stroke="#646D7B" stroke-linecap="round" stroke-linejoin="round"/>
</svg>
