<svg width="21" height="21" viewBox="0 0 21 21" fill="none" xmlns="http://www.w3.org/2000/svg">
<path d="M14.3405 17.1605H2.39246M14.3405 17.1605L15.0544 14.3042C15.1896 13.765 15.0133 13.1945 14.5981 12.8256L13.5938 11.9332M14.3405 17.1605H12.1002V18.2806C12.1002 18.4867 12.2675 18.654 12.4736 18.654H13.9671C14.1732 18.654 14.3405 18.4867 14.3405 18.2806V17.1605ZM2.39246 17.1605L1.67856 14.3042C1.5434 13.765 1.71963 13.1945 2.13483 12.8256L3.13921 11.9332M2.39246 17.1605H4.63272V18.2806C4.63272 18.4867 4.46544 18.654 4.25934 18.654H2.76583C2.55973 18.654 2.39246 18.4867 2.39246 18.2806V17.1605ZM3.13921 11.9332L3.88596 8.94621C3.88596 8.94621 6.12622 8.19946 8.36648 8.19946C10.6067 8.19946 12.847 8.94621 12.847 8.94621L13.5938 11.9332M3.13921 11.9332H13.5938M17.6078 12.307L18.3217 9.45071C18.4569 8.91155 18.2806 8.34103 17.8654 7.97213M17.6078 12.307H15.3676V13.4272C15.3676 13.6333 15.5348 13.8005 15.7409 13.8005H17.2344C17.4405 13.8005 17.6078 13.6333 17.6078 13.4272V12.307ZM17.6078 12.307L13.9671 12.265M5.40213 7.97213L6.40652 7.07976M6.40652 7.07976L7.15327 4.09275C7.15327 4.09275 9.99069 2.78514 12.4242 3.09208M6.40652 7.07976H13.3236" stroke="#A4C8FF" stroke-linecap="round" stroke-linejoin="round"/>
<path d="M18.9863 5.92945L18.5531 5.39177C18.7667 5.0911 18.9021 4.74203 18.9471 4.37602L19.6296 4.27108C19.7083 4.25891 19.7839 4.23136 19.852 4.18999C19.9201 4.14862 19.9794 4.09424 20.0264 4.02996C20.0735 3.96568 20.1075 3.89276 20.1264 3.81535C20.1453 3.73795 20.1487 3.65758 20.1366 3.57884C20.1244 3.50009 20.0968 3.42452 20.0555 3.35642C20.0141 3.28833 19.9597 3.22905 19.8954 3.18197C19.8312 3.13489 19.7582 3.10093 19.6808 3.08204C19.6034 3.06314 19.5231 3.05967 19.4443 3.07184L18.7602 3.17829C18.6069 2.8434 18.3729 2.55183 18.079 2.32978L18.329 1.68528C18.3872 1.53534 18.3834 1.36843 18.3185 1.22128C18.2536 1.07413 18.1329 0.958788 17.983 0.900628C17.833 0.842467 17.6661 0.846252 17.519 0.91115C17.3718 0.976049 17.2565 1.09675 17.1983 1.24669L16.9483 1.89119C16.5816 1.85702 16.2121 1.91449 15.8731 2.05842L15.4397 1.51849C15.3389 1.39312 15.1923 1.31295 15.0324 1.29562C14.8724 1.27829 14.7121 1.32522 14.5867 1.42609C14.4613 1.52696 14.3811 1.6735 14.3638 1.83348C14.3465 1.99346 14.3934 2.15377 14.4943 2.27914L14.9275 2.81682C14.7139 3.11749 14.5785 3.46656 14.5335 3.83258L13.851 3.93751C13.692 3.96208 13.5492 4.04881 13.4541 4.17863C13.3591 4.30845 13.3194 4.47073 13.344 4.62975C13.3686 4.78878 13.4553 4.93154 13.5851 5.02662C13.7149 5.1217 13.8772 5.16132 14.0363 5.13675L14.7204 5.0303C14.8737 5.36519 15.1077 5.65676 15.4016 5.87881L15.1516 6.52331C15.0934 6.67326 15.0972 6.84016 15.1621 6.98731C15.227 7.13446 15.3477 7.2498 15.4976 7.30796C15.6476 7.36612 15.8145 7.36234 15.9616 7.29744C16.1088 7.23254 16.2241 7.11185 16.2823 6.9619L16.5323 6.3174C16.899 6.35157 17.2684 6.2941 17.6074 6.15017L18.0408 6.6901C18.0908 6.75218 18.1525 6.80381 18.2224 6.84205C18.2923 6.88029 18.369 6.90439 18.4482 6.91297C18.5274 6.92156 18.6076 6.91445 18.684 6.89206C18.7605 6.86968 18.8318 6.83245 18.8939 6.7825C18.956 6.73256 19.0076 6.67088 19.0458 6.60097C19.0841 6.53107 19.1082 6.45433 19.1168 6.37511C19.1253 6.2959 19.1182 6.21577 19.0959 6.1393C19.0735 6.06284 19.0362 5.99153 18.9863 5.92945ZM16.3748 5.04655C16.1884 4.97426 16.0277 4.84834 15.9129 4.6847C15.7981 4.52105 15.7344 4.32705 15.7299 4.12721C15.7254 3.92737 15.7802 3.73068 15.8874 3.562C15.9947 3.39332 16.1496 3.26024 16.3325 3.17958C16.5153 3.09892 16.7181 3.0743 16.9149 3.10884C17.1118 3.14338 17.294 3.23553 17.4385 3.37363C17.5831 3.51173 17.6834 3.68959 17.7268 3.8847C17.7702 4.07981 17.7548 4.28343 17.6825 4.46979C17.5856 4.71969 17.3934 4.92085 17.1481 5.02901C16.9029 5.13718 16.6247 5.14348 16.3748 5.04655Z" fill="#A4C8FF"/>
</svg>
