<svg width="40" height="40" viewBox="0 0 40 40" fill="none" xmlns="http://www.w3.org/2000/svg">
<path d="M17.7221 10.3452C12.188 10.3452 7.49526 13.9442 5.85658 18.9296L13.0612 20.2006C13.9801 18.5768 15.723 17.4809 17.7221 17.4809C19.7213 17.4809 21.4642 18.5768 22.3831 20.2006L29.5877 18.9296C29.4977 18.744 29.4387 18.3495 29.0675 17.5766M17.7221 10.3452C19.2395 10.3452 20.6936 10.6158 22.0388 11.1113C20.7816 10.5462 18.6372 10.3651 17.7221 10.3452ZM23.0018 7.66544C21.3483 7.09003 19.5718 6.77734 17.7221 6.77734C8.85421 6.77734 1.66675 13.9648 1.66675 22.8327C1.66675 31.7007 8.85421 38.8881 17.7221 38.8881C26.5901 38.8881 33.7775 31.7007 33.7775 22.8327C33.7775 20.775 33.7775 19.2649 32.8856 16.589M5.24175 22.4421L12.4425 23.7136C12.7636 25.6529 14.1271 27.24 15.9382 27.88L15.9381 35.1938C9.88607 34.3283 5.23461 29.1243 5.23461 22.8327L5.24175 22.4421ZM23.0018 23.7136L30.2037 22.4424L30.2097 22.8327C30.2097 29.1237 25.5591 34.3273 19.508 35.1936L19.5079 27.8794C21.3181 27.239 22.6808 25.6523 23.0018 23.7136Z" stroke="#4560E4" stroke-linecap="round" stroke-linejoin="round"/>
<path d="M34.8709 13.0802L34.0255 12.0309C34.4422 11.4441 34.7064 10.7629 34.7944 10.0486L36.1262 9.8438C36.2799 9.82006 36.4274 9.76629 36.5603 9.68555C36.6932 9.60481 36.8089 9.49869 36.9007 9.37325C36.9926 9.2478 37.0589 9.10548 37.0958 8.95443C37.1326 8.80337 37.1394 8.64653 37.1157 8.49286C37.0919 8.33918 37.0382 8.19169 36.9574 8.0588C36.8767 7.92591 36.7706 7.81022 36.6451 7.71835C36.5197 7.62647 36.3773 7.5602 36.2263 7.52332C36.0752 7.48644 35.9184 7.47968 35.7647 7.50342L34.4296 7.71117C34.1305 7.05761 33.6737 6.4886 33.1003 6.05525L33.5881 4.79747C33.7016 4.50485 33.6943 4.17913 33.5676 3.89195C33.4409 3.60478 33.2054 3.37969 32.9128 3.26618C32.6202 3.15268 32.2944 3.16006 32.0073 3.28672C31.7201 3.41337 31.495 3.64892 31.3815 3.94153L30.8936 5.19932C30.178 5.13264 29.4569 5.24479 28.7953 5.52569L27.9496 4.47198C27.7527 4.2273 27.4667 4.07084 27.1545 4.03702C26.8423 4.0032 26.5294 4.09479 26.2848 4.29164C26.0401 4.4885 25.8836 4.77448 25.8498 5.08669C25.816 5.3989 25.9076 5.71175 26.1044 5.95643L26.9498 7.00574C26.5331 7.59252 26.2688 8.27373 26.1809 8.98804L24.8491 9.19283C24.5387 9.24077 24.2601 9.41003 24.0745 9.66339C23.889 9.91674 23.8117 10.2334 23.8596 10.5438C23.9076 10.8541 24.0768 11.1327 24.3302 11.3183C24.5835 11.5038 24.9002 11.5812 25.2106 11.5332L26.5457 11.3255C26.8448 11.979 27.3016 12.548 27.875 12.9814L27.3871 14.2392C27.2736 14.5318 27.281 14.8575 27.4077 15.1447C27.5343 15.4318 27.7699 15.6569 28.0625 15.7704C28.3551 15.884 28.6808 15.8766 28.968 15.7499C29.2552 15.6233 29.4803 15.3877 29.5938 15.0951L30.0817 13.8373C30.7973 13.904 31.5183 13.7918 32.1799 13.5109L33.0257 14.5646C33.1232 14.6858 33.2436 14.7866 33.38 14.8612C33.5164 14.9358 33.6662 14.9829 33.8208 14.9996C33.9754 15.0164 34.1317 15.0025 34.281 14.9588C34.4302 14.9151 34.5694 14.8425 34.6905 14.745C34.8117 14.6475 34.9124 14.5271 34.9871 14.3907C35.0617 14.2543 35.1087 14.1045 35.1255 13.9499C35.1422 13.7954 35.1284 13.639 35.0847 13.4897C35.041 13.3405 34.9683 13.2014 34.8709 13.0802ZM29.7744 11.3572C29.4107 11.2161 29.097 10.9704 28.8729 10.651C28.6489 10.3316 28.5246 9.95303 28.5158 9.56303C28.5069 9.17304 28.6139 8.78918 28.8233 8.46C29.0326 8.13082 29.3348 7.87109 29.6917 7.71368C30.0487 7.55626 30.4442 7.50822 30.8285 7.57563C31.2127 7.64304 31.5683 7.82287 31.8503 8.09239C32.1323 8.3619 32.3281 8.70899 32.4129 9.08976C32.4976 9.47054 32.4676 9.8679 32.3265 10.2316C32.1373 10.7193 31.7622 11.1119 31.2835 11.323C30.8049 11.534 30.2621 11.5464 29.7744 11.3572Z" fill="#4560E4"/>
</svg>
