<svg width="20" height="20" viewBox="0 0 20 20" fill="none" xmlns="http://www.w3.org/2000/svg">
<path d="M8.86119 5.17259C6.09411 5.17259 3.74775 6.97208 2.92841 9.4648L6.5307 10.1003C6.99015 9.28837 7.86162 8.74045 8.86119 8.74045C9.86077 8.74045 10.7322 9.28837 11.1917 10.1003L14.794 9.4648C14.749 9.37201 14.7195 9.17471 14.5339 8.78829M8.86119 5.17259C9.61987 5.17259 10.3469 5.30786 11.0195 5.55561C10.3909 5.2731 9.31872 5.18255 8.86119 5.17259ZM11.501 3.8327C10.6743 3.545 9.78602 3.38866 8.86119 3.38866C4.42723 3.38866 0.833496 6.98239 0.833496 11.4164C0.833496 15.8503 4.42723 19.444 8.86119 19.444C13.2952 19.444 16.8889 15.8503 16.8889 11.4164C16.8889 10.3875 16.8889 9.63242 16.4429 8.29447M2.621 11.221L6.22136 11.8568C6.3819 12.8264 7.06366 13.62 7.9692 13.94L7.96915 17.5969C4.94316 17.1641 2.61743 14.5621 2.61743 11.4164L2.621 11.221ZM11.501 11.8568L15.102 11.2212L15.105 11.4164C15.105 14.5618 12.7797 17.1636 9.75413 17.5968L9.75408 13.9397C10.6592 13.6195 11.3405 12.8261 11.501 11.8568Z" stroke="#959EB3" stroke-linecap="round" stroke-linejoin="round"/>
<path d="M17.4354 6.5401L17.0127 6.01544C17.2211 5.72206 17.3532 5.38145 17.3972 5.0243L18.0631 4.9219C18.1399 4.91003 18.2137 4.88315 18.2801 4.84278C18.3466 4.80241 18.4044 4.74935 18.4504 4.68662C18.4963 4.6239 18.5294 4.55274 18.5479 4.47721C18.5663 4.40168 18.5697 4.32326 18.5578 4.24643C18.546 4.16959 18.5191 4.09585 18.4787 4.0294C18.4383 3.96295 18.3853 3.90511 18.3226 3.85917C18.2598 3.81323 18.1887 3.7801 18.1131 3.76166C18.0376 3.74322 17.9592 3.73984 17.8824 3.75171L17.2148 3.85559C17.0652 3.52881 16.8368 3.2443 16.5501 3.02762L16.7941 2.39873C16.8508 2.25242 16.8471 2.08956 16.7838 1.94598C16.7205 1.80239 16.6027 1.68984 16.4564 1.63309C16.3101 1.57634 16.1472 1.58003 16.0036 1.64336C15.8601 1.70669 15.7475 1.82446 15.6908 1.97077L15.4468 2.59966C15.089 2.56632 14.7285 2.6224 14.3977 2.76284L13.9748 2.23599C13.8764 2.11365 13.7334 2.03542 13.5773 2.01851C13.4211 2.0016 13.2647 2.0474 13.1424 2.14582C13.02 2.24425 12.9418 2.38724 12.9249 2.54334C12.908 2.69945 12.9538 2.85588 13.0522 2.97822L13.4749 3.50287C13.2665 3.79626 13.1344 4.13687 13.0904 4.49402L12.4245 4.59642C12.2693 4.62038 12.13 4.70502 12.0373 4.83169C11.9445 4.95837 11.9058 5.11671 11.9298 5.27189C11.9538 5.42707 12.0384 5.56637 12.1651 5.65914C12.2918 5.75192 12.4501 5.79058 12.6053 5.76661L13.2728 5.66273C13.4224 5.98951 13.6508 6.27402 13.9375 6.49069L13.6936 7.11958C13.6368 7.26589 13.6405 7.42875 13.7038 7.57234C13.7672 7.71592 13.8849 7.82847 14.0312 7.88522C14.1776 7.94198 14.3404 7.93828 14.484 7.87496C14.6276 7.81163 14.7401 7.69386 14.7969 7.54755L15.0408 6.91866C15.3987 6.95199 15.7592 6.89592 16.09 6.75547L16.5129 7.28232C16.5616 7.3429 16.6218 7.39328 16.69 7.4306C16.7582 7.46792 16.8331 7.49143 16.9104 7.4998C16.9877 7.50818 17.0659 7.50124 17.1405 7.4794C17.2151 7.45756 17.2847 7.42123 17.3453 7.37249C17.4058 7.32376 17.4562 7.26357 17.4935 7.19536C17.5308 7.12715 17.5544 7.05227 17.5627 6.97497C17.5711 6.89768 17.5642 6.81949 17.5423 6.74487C17.5205 6.67026 17.4842 6.60068 17.4354 6.5401ZM14.8872 5.67859C14.7053 5.60805 14.5485 5.48518 14.4365 5.3255C14.3245 5.16582 14.2623 4.97651 14.2579 4.78152C14.2535 4.58652 14.307 4.39459 14.4116 4.23C14.5163 4.06541 14.6674 3.93555 14.8459 3.85684C15.0243 3.77813 15.2221 3.75411 15.4142 3.78782C15.6063 3.82152 15.7842 3.91144 15.9252 4.04619C16.0662 4.18095 16.1641 4.35449 16.2064 4.54488C16.2488 4.73527 16.2338 4.93395 16.1632 5.1158C16.0687 5.35965 15.8811 5.55593 15.6418 5.66148C15.4025 5.76702 15.131 5.77318 14.8872 5.67859Z" fill="#959EB3"/>
</svg>
