<svg width="20" height="20" viewBox="0 0 20 20" fill="none" xmlns="http://www.w3.org/2000/svg">
<path fill-rule="evenodd" clip-rule="evenodd" d="M9.99984 18.3333C5.39706 18.3333 1.6665 14.6028 1.6665 9.99999C1.6665 5.39721 5.39706 1.66666 9.99984 1.66666C14.6026 1.66666 18.3332 5.39721 18.3332 9.99999C18.3332 14.6028 14.6026 18.3333 9.99984 18.3333Z" stroke="#959EB3" stroke-linecap="round" stroke-linejoin="round"/>
<path fill-rule="evenodd" clip-rule="evenodd" d="M3.52206 9.79721L7.2595 10.4572C7.42615 11.4638 8.13387 12.2875 9.07388 12.6197L9.07383 16.4158C5.93263 15.9666 3.51836 13.2655 3.51836 9.99999L3.52206 9.79721Z" stroke="#959EB3" stroke-linecap="round" stroke-linejoin="round"/>
<path fill-rule="evenodd" clip-rule="evenodd" d="M12.7402 10.4572L16.4782 9.79741L16.4813 9.99999C16.4813 13.2652 14.0675 15.9661 10.9268 16.4157L10.9267 12.6194C11.8663 12.287 12.5736 11.4634 12.7402 10.4572Z" stroke="#959EB3" stroke-linecap="round" stroke-linejoin="round"/>
<path fill-rule="evenodd" clip-rule="evenodd" d="M9.99984 3.51851C12.8723 3.51851 15.308 5.38652 16.1585 7.97413L12.4191 8.63381C11.9421 7.79099 11.0375 7.22221 9.99984 7.22221C8.96221 7.22221 8.05756 7.79099 7.58062 8.63381L3.84118 7.97413C4.69172 5.38652 7.1274 3.51851 9.99984 3.51851Z" stroke="#959EB3" stroke-linecap="round" stroke-linejoin="round"/>
</svg>
