<svg width="20" height="20" viewBox="0 0 20 20" fill="none" xmlns="http://www.w3.org/2000/svg">
<path fill-rule="evenodd" clip-rule="evenodd" d="M10 19C5.029 19 1 14.971 1 10C1 5.029 5.029 1 10 1C14.971 1 19 5.029 19 10C19 14.971 14.971 19 10 19Z" stroke="#646D7B" stroke-linecap="round" stroke-linejoin="round"/>
<path fill-rule="evenodd" clip-rule="evenodd" d="M3.004 9.781L7.04043 10.4938C7.22042 11.5809 7.98475 12.4705 8.99997 12.8293L8.99992 16.9291C5.60742 16.4439 3 13.5268 3 10L3.004 9.781Z" stroke="#646D7B" stroke-linecap="round" stroke-linejoin="round"/>
<path fill-rule="evenodd" clip-rule="evenodd" d="M12.9596 10.4938L16.9966 9.78122L17 10C17 13.5264 14.3931 16.4434 11.0011 16.929L11.001 12.829C12.0157 12.47 12.7796 11.5805 12.9596 10.4938Z" stroke="#646D7B" stroke-linecap="round" stroke-linejoin="round"/>
<path fill-rule="evenodd" clip-rule="evenodd" d="M10 3C13.1022 3 15.7328 5.01745 16.6514 7.81207L12.6128 8.52452C12.0977 7.61428 11.1206 7 10 7C8.87936 7 7.90234 7.61428 7.38725 8.52452L3.34865 7.81207C4.26723 5.01745 6.89777 3 10 3Z" stroke="#646D7B" stroke-linecap="round" stroke-linejoin="round"/>
</svg>
