<svg width="18" height="18" viewBox="0 0 18 18" fill="none" xmlns="http://www.w3.org/2000/svg">
<path d="M13.3405 15.1605H1.39246M13.3405 15.1605L14.0544 12.3042C14.1896 11.765 14.0133 11.1945 13.5981 10.8256L12.5938 9.93324M13.3405 15.1605H11.1002V16.2806C11.1002 16.4867 11.2675 16.654 11.4736 16.654H12.9671C13.1732 16.654 13.3405 16.4867 13.3405 16.2806V15.1605ZM1.39246 15.1605L0.67856 12.3042C0.543397 11.765 0.719631 11.1945 1.13483 10.8256L2.13921 9.93324M1.39246 15.1605H3.63272V16.2806C3.63272 16.4867 3.46544 16.654 3.25934 16.654H1.76583C1.55973 16.654 1.39246 16.4867 1.39246 16.2806V15.1605ZM2.13921 9.93324L2.88596 6.94622C2.88596 6.94622 5.12622 6.19947 7.36648 6.19947C9.60674 6.19947 11.847 6.94622 11.847 6.94622L12.5938 9.93324M2.13921 9.93324H12.5938M16.6078 10.307L17.3217 7.45072C17.4569 6.91156 17.2806 6.34104 16.8654 5.97214L15.8611 5.07977M16.6078 10.307H14.3676V11.4272C14.3676 11.6333 14.5348 11.8006 14.7409 11.8006H16.2344C16.4405 11.8006 16.6078 11.6333 16.6078 11.4272V10.307ZM16.6078 10.307L12.9671 10.265M4.40213 5.97214L5.40652 5.07977M5.40652 5.07977L6.15327 2.09276C6.15327 2.09276 8.39353 1.34601 10.6338 1.34601C12.874 1.34601 15.1143 2.09276 15.1143 2.09276L15.8611 5.07977M5.40652 5.07977H15.8611" stroke="#A4C8FF" stroke-linecap="round" stroke-linejoin="round"/>
</svg>
