<svg width="21" height="21" viewBox="0 0 21 21" fill="none" xmlns="http://www.w3.org/2000/svg">
<path d="M14.3405 17.1605H2.39246M14.3405 17.1605L15.0544 14.3042C15.1896 13.765 15.0133 13.1945 14.5981 12.8256L13.5938 11.9332M14.3405 17.1605H12.1002V18.2806C12.1002 18.4867 12.2675 18.654 12.4736 18.654H13.9671C14.1732 18.654 14.3405 18.4867 14.3405 18.2806V17.1605ZM2.39246 17.1605L1.67856 14.3042C1.5434 13.765 1.71963 13.1945 2.13483 12.8256L3.13921 11.9332M2.39246 17.1605H4.63272V18.2806C4.63272 18.4867 4.46544 18.654 4.25934 18.654H2.76583C2.55973 18.654 2.39246 18.4867 2.39246 18.2806V17.1605ZM3.13921 11.9332L3.88596 8.94621C3.88596 8.94621 6.12622 8.19946 8.36648 8.19946C10.6067 8.19946 12.847 8.94621 12.847 8.94621L13.5938 11.9332M3.13921 11.9332H13.5938M17.6078 12.307L18.3217 9.45071C18.4569 8.91155 18.2806 8.34103 17.8654 7.97213M17.6078 12.307H15.3676V13.4272C15.3676 13.6333 15.5348 13.8005 15.7409 13.8005H17.2344C17.4405 13.8005 17.6078 13.6333 17.6078 13.4272V12.307ZM17.6078 12.307L13.9671 12.265M5.40213 7.97213L6.40652 7.07976M6.40652 7.07976L7.15327 4.09275C7.15327 4.09275 9.99069 2.78514 12.4242 3.09208M6.40652 7.07976H13.3236" stroke="#959EB3" stroke-linecap="round" stroke-linejoin="round"/>
<path d="M18.9863 5.92948L18.5531 5.3918C18.7667 5.09113 18.9021 4.74206 18.9471 4.37605L19.6296 4.27111C19.7083 4.25895 19.7839 4.23139 19.852 4.19002C19.9201 4.14865 19.9794 4.09427 20.0264 4.02999C20.0735 3.96571 20.1075 3.89279 20.1264 3.81538C20.1453 3.73798 20.1487 3.65761 20.1366 3.57887C20.1244 3.50012 20.0968 3.42455 20.0555 3.35645C20.0141 3.28836 19.9597 3.22908 19.8954 3.182C19.8312 3.13492 19.7582 3.10096 19.6808 3.08207C19.6034 3.06317 19.5231 3.0597 19.4443 3.07187L18.7602 3.17832C18.6069 2.84343 18.3729 2.55186 18.079 2.32981L18.329 1.68531C18.3872 1.53537 18.3834 1.36846 18.3185 1.22131C18.2536 1.07416 18.1329 0.958819 17.983 0.900658C17.833 0.842497 17.6661 0.846282 17.519 0.911181C17.3718 0.976079 17.2565 1.09678 17.1983 1.24672L16.9483 1.89122C16.5816 1.85706 16.2121 1.91452 15.8731 2.05845L15.4397 1.51853C15.3389 1.39315 15.1923 1.31298 15.0324 1.29565C14.8724 1.27832 14.7121 1.32525 14.5867 1.42612C14.4613 1.52699 14.3811 1.67353 14.3638 1.83351C14.3465 1.99349 14.3934 2.1538 14.4943 2.27918L14.9275 2.81685C14.7139 3.11752 14.5785 3.46659 14.5335 3.83261L13.851 3.93754C13.692 3.96211 13.5492 4.04884 13.4541 4.17866C13.3591 4.30848 13.3194 4.47076 13.344 4.62978C13.3686 4.78881 13.4553 4.93157 13.5851 5.02665C13.7149 5.12173 13.8772 5.16135 14.0363 5.13678L14.7204 5.03033C14.8737 5.36522 15.1077 5.65679 15.4016 5.87884L15.1516 6.52335C15.0934 6.67329 15.0972 6.84019 15.1621 6.98734C15.227 7.13449 15.3477 7.24983 15.4976 7.30799C15.6476 7.36615 15.8145 7.36237 15.9616 7.29747C16.1088 7.23257 16.2241 7.11188 16.2823 6.96194L16.5323 6.31743C16.899 6.3516 17.2684 6.29413 17.6074 6.1502L18.0408 6.69013C18.0908 6.75221 18.1525 6.80384 18.2224 6.84208C18.2923 6.88032 18.369 6.90442 18.4482 6.91301C18.5274 6.92159 18.6076 6.91448 18.684 6.89209C18.7605 6.86971 18.8318 6.83248 18.8939 6.78253C18.956 6.73259 19.0076 6.67091 19.0458 6.60101C19.0841 6.53111 19.1082 6.45436 19.1168 6.37514C19.1253 6.29593 19.1182 6.2158 19.0959 6.13933C19.0735 6.06287 19.0362 5.99156 18.9863 5.92948ZM16.3748 5.04658C16.1884 4.97429 16.0277 4.84837 15.9129 4.68473C15.7981 4.52108 15.7344 4.32708 15.7299 4.12724C15.7254 3.9274 15.7802 3.73071 15.8874 3.56203C15.9947 3.39336 16.1496 3.26027 16.3325 3.17961C16.5153 3.09895 16.7181 3.07433 16.9149 3.10887C17.1118 3.14341 17.294 3.23556 17.4385 3.37366C17.5831 3.51177 17.6834 3.68962 17.7268 3.88473C17.7702 4.07985 17.7548 4.28346 17.6825 4.46982C17.5856 4.71972 17.3934 4.92088 17.1481 5.02904C16.9029 5.13721 16.6247 5.14352 16.3748 5.04658Z" fill="#959EB3"/>
</svg>
