<svg width="20" height="20" viewBox="0 0 20 20" fill="none" xmlns="http://www.w3.org/2000/svg">
<path d="M14.3405 16.1604H2.39246M14.3405 16.1604L15.0544 13.3041C15.1896 12.765 15.0133 12.1944 14.5981 11.8255L13.5938 10.9332M14.3405 16.1604H12.1002V17.2806C12.1002 17.4867 12.2675 17.654 12.4736 17.654H13.9671C14.1732 17.654 14.3405 17.4867 14.3405 17.2806V16.1604ZM2.39246 16.1604L1.67856 13.3041C1.5434 12.765 1.71963 12.1944 2.13483 11.8255L3.13921 10.9332M2.39246 16.1604H4.63272V17.2806C4.63272 17.4867 4.46544 17.654 4.25934 17.654H2.76583C2.55973 17.654 2.39246 17.4867 2.39246 17.2806V16.1604ZM3.13921 10.9332L3.88596 7.94616C3.88596 7.94616 6.12622 7.19941 8.36648 7.19941C10.6067 7.19941 12.847 7.94616 12.847 7.94616L13.5938 10.9332M3.13921 10.9332H13.5938M17.6078 11.307L18.3217 8.45065C18.4569 7.9115 18.2806 7.34098 17.8654 6.97208L16.8611 6.07971M17.6078 11.307H15.3676V12.4271C15.3676 12.6332 15.5348 12.8005 15.7409 12.8005H17.2344C17.4405 12.8005 17.6078 12.6332 17.6078 12.4271V11.307ZM17.6078 11.307L13.9671 11.2649M5.40213 6.97208L6.40652 6.07971M6.40652 6.07971L7.15327 3.0927C7.15327 3.0927 9.39353 2.34595 11.6338 2.34595C13.874 2.34595 16.1143 3.0927 16.1143 3.0927L16.8611 6.07971M6.40652 6.07971H16.8611" stroke="#959EB3" stroke-linecap="round" stroke-linejoin="round"/>
</svg>
