<svg width="40" height="40" viewBox="0 0 40 40" fill="none" xmlns="http://www.w3.org/2000/svg">
<path d="M22.0849 18.7517L32.3016 28.9683C33.6816 30.3483 33.6816 32.585 32.3016 33.965L32.2983 33.9683C30.9183 35.3483 28.6816 35.3483 27.3016 33.9683L18.3349 25.0017M15.8349 20.0017L7.08325 11.25L5.83325 12.5L4.16659 7.5L5.83325 5.83333L10.8333 7.5L9.58325 8.75L18.3366 17.5033M24.5866 11.25L15.4199 20.4167L14.1699 19.1667L4.36825 28.9683C2.98825 30.3483 2.98825 32.585 4.36825 33.965L4.37159 33.9683C5.75159 35.3483 7.98825 35.3483 9.36825 33.9683L19.1699 24.1667L17.9199 22.9167L27.0866 13.75M31.6699 18.3333L18.3366 5H21.5516C23.7616 5 25.8799 5.87667 27.4449 7.44167L30.0033 10H33.3366L36.6699 13.3333L31.6699 18.3333Z" stroke="#4560E4" stroke-width="1.5" stroke-linecap="round" stroke-linejoin="round"/>
</svg>
