<svg width="20" height="20" viewBox="0 0 20 20" fill="none" xmlns="http://www.w3.org/2000/svg">
<path d="M11.0423 9.37583L16.1507 14.4842C16.8407 15.1742 16.8407 16.2925 16.1507 16.9825L16.149 16.9842C15.459 17.6742 14.3407 17.6742 13.6507 16.9842L9.16734 12.5008M7.91734 10.0008L3.5415 5.625L2.9165 6.25L2.08317 3.75L2.9165 2.91667L5.4165 3.75L4.7915 4.375L9.16817 8.75167M12.2932 5.625L7.70984 10.2083L7.08484 9.58333L2.184 14.4842C1.494 15.1742 1.494 16.2925 2.184 16.9825L2.18567 16.9842C2.87567 17.6742 3.994 17.6742 4.684 16.9842L9.58484 12.0833L8.95984 11.4583L13.5432 6.875M15.8348 9.16667L9.16817 2.5H10.7757C11.8807 2.5 12.9398 2.93833 13.7223 3.72083L15.0015 5H16.6682L18.3348 6.66667L15.8348 9.16667Z" stroke="#959EB3" stroke-linecap="round" stroke-linejoin="round"/>
</svg>
