<svg width="20" height="20" viewBox="0 0 20 20" fill="none" xmlns="http://www.w3.org/2000/svg">
<path fill-rule="evenodd" clip-rule="evenodd" d="M17.5 11.6667V8.33333H15.5883C15.4725 7.94583 15.3217 7.57417 15.1317 7.225L16.4817 5.875L14.125 3.51833L12.775 4.86833C12.4258 4.67917 12.0542 4.52667 11.6667 4.41167V2.5H8.33333V4.41167C7.94583 4.52667 7.57417 4.67917 7.225 4.86833L5.875 3.51833L3.51833 5.875L4.86833 7.225C4.67833 7.57417 4.5275 7.94583 4.41167 8.33333H2.5V11.6667H4.41167C4.5275 12.0542 4.67833 12.4258 4.86833 12.775L3.51833 14.125L5.875 16.4817L7.225 15.1317C7.57417 15.3208 7.94583 15.4733 8.33333 15.5883V17.5H11.6667V15.5883C12.0542 15.4733 12.4258 15.3208 12.775 15.1317L14.125 16.4817L16.4817 14.125L15.1317 12.775C15.3217 12.4258 15.4725 12.0542 15.5883 11.6667H17.5Z" stroke="#A4C8FF" stroke-linecap="round" stroke-linejoin="round"/>
<path fill-rule="evenodd" clip-rule="evenodd" d="M12.5 10C12.5 11.3808 11.3808 12.5 10 12.5C8.61917 12.5 7.5 11.3808 7.5 10C7.5 8.61917 8.61917 7.5 10 7.5C11.3808 7.5 12.5 8.61917 12.5 10Z" stroke="#A4C8FF" stroke-linecap="round" stroke-linejoin="round"/>
</svg>
