<svg width="20" height="20" viewBox="0 0 20 20" fill="none" xmlns="http://www.w3.org/2000/svg">
<path d="M13.3333 10.0003C13.3333 10.6413 13.1378 11.2678 12.7716 11.8008C12.4053 12.3337 11.8847 12.7491 11.2756 12.9944C10.6665 13.2397 9.9963 13.3038 9.3497 13.1788C8.7031 13.0538 8.10915 12.7451 7.64298 12.2919C7.1768 11.8386 6.85933 11.2612 6.73072 10.6326C6.6021 10.0039 6.66811 9.35232 6.9204 8.76015C7.17269 8.16798 7.59994 7.66185 8.1481 7.30575C8.69626 6.94965 9.34073 6.75958 10 6.75958C10.8841 6.75958 11.7319 7.10102 12.357 7.70878C12.9821 8.31653 13.3333 9.14083 13.3333 10.0003ZM20 4.81514V15.1855C20 15.3574 19.9298 15.5223 19.8047 15.6438C19.6797 15.7654 19.5101 15.8337 19.3333 15.8337H0.666667C0.489856 15.8337 0.320286 15.7654 0.195262 15.6438C0.0702379 15.5223 0 15.3574 0 15.1855V4.81514C0 4.64324 0.0702379 4.47838 0.195262 4.35683C0.320286 4.23528 0.489856 4.16699 0.666667 4.16699H19.3333C19.5101 4.16699 19.6797 4.23528 19.8047 4.35683C19.9298 4.47838 20 4.64324 20 4.81514ZM18.6667 8.57035C17.9097 8.35274 17.2207 7.95445 16.6625 7.41177C16.1043 6.86909 15.6947 6.19926 15.4708 5.46329H4.52917C4.30534 6.19926 3.89567 6.86909 3.33749 7.41177C2.7793 7.95445 2.09033 8.35274 1.33333 8.57035V11.4303C2.09033 11.6479 2.7793 12.0462 3.33749 12.5889C3.89567 13.1316 4.30534 13.8014 4.52917 14.5374H15.4708C15.6947 13.8014 16.1043 13.1316 16.6625 12.5889C17.2207 12.0462 17.9097 11.6479 18.6667 11.4303V8.57035Z" fill="#A4C8FF"/>
</svg>
