<svg width="20" height="12" viewBox="0 0 20 12" fill="none" xmlns="http://www.w3.org/2000/svg">
<path d="M13.3333 5.99984C13.3333 6.64079 13.1378 7.26736 12.7716 7.8003C12.4053 8.33323 11.8847 8.74861 11.2756 8.99389C10.6665 9.23917 9.9963 9.30335 9.3497 9.17831C8.7031 9.05326 8.10915 8.74461 7.64298 8.29139C7.1768 7.83816 6.85933 7.26072 6.73072 6.63207C6.6021 6.00343 6.66811 5.35183 6.9204 4.75966C7.17269 4.16749 7.59994 3.66136 8.1481 3.30526C8.69626 2.94916 9.34073 2.7591 10 2.7591C10.8841 2.7591 11.7319 3.10053 12.357 3.70829C12.9821 4.31604 13.3333 5.14034 13.3333 5.99984ZM20 0.814652V11.185C20 11.3569 19.9298 11.5218 19.8047 11.6433C19.6797 11.7649 19.5101 11.8332 19.3333 11.8332H0.666667C0.489856 11.8332 0.320286 11.7649 0.195262 11.6433C0.0702379 11.5218 0 11.3569 0 11.185V0.814652C0 0.642752 0.0702379 0.477894 0.195262 0.356342C0.320286 0.234791 0.489856 0.166504 0.666667 0.166504H19.3333C19.5101 0.166504 19.6797 0.234791 19.8047 0.356342C19.9298 0.477894 20 0.642752 20 0.814652ZM18.6667 4.56986C17.9097 4.35225 17.2207 3.95396 16.6625 3.41128C16.1043 2.8686 15.6947 2.19877 15.4708 1.4628H4.52917C4.30534 2.19877 3.89567 2.8686 3.33749 3.41128C2.7793 3.95396 2.09033 4.35225 1.33333 4.56986V7.42981C2.09033 7.64742 2.7793 8.04571 3.33749 8.58839C3.89567 9.13107 4.30534 9.8009 4.52917 10.5369H15.4708C15.6947 9.8009 16.1043 9.13107 16.6625 8.58839C17.2207 8.04571 17.9097 7.64742 18.6667 7.42981V4.56986Z" fill="#959EB3"/>
</svg>
