<svg width="40" height="40" viewBox="0 0 40 40" fill="none" xmlns="http://www.w3.org/2000/svg">
<g filter="url(#filter0_d_7602_106481)">
<rect x="6" y="4" width="28" height="28" rx="14" fill="#CC1010" shape-rendering="crispEdges"/>
<path d="M28.999 24.0527C27.079 22.1327 26 19.5277 26 16.8117V16.0537C26 13.4297 24.312 11.2047 21.966 10.3897C21.984 10.2807 22 10.1687 22 10.0537C22 8.94871 21.104 8.05371 20 8.05371C18.895 8.05371 18 8.94871 18 10.0537C18 10.1687 18.016 10.2807 18.034 10.3897C15.687 11.2047 14 13.4297 14 16.0537V16.8117C14 19.5277 12.921 22.1327 11.001 24.0527L11 24.0537H18H22H29L28.999 24.0527Z" fill="white"/>
<path d="M22 24.0537H18C18 25.1537 18.9 26.0537 20 26.0537C21.1 26.0537 22 25.1537 22 24.0537Z" fill="white"/>
<path d="M11 24.0537L11.001 24.0527C12.921 22.1327 14 19.5277 14 16.8117V16.0537C14 13.4297 15.687 11.2047 18.034 10.3897C18.016 10.2807 18 10.1687 18 10.0537C18 8.94871 18.895 8.05371 20 8.05371C21.104 8.05371 22 8.94871 22 10.0537C22 10.1687 21.984 10.2807 21.966 10.3897C24.312 11.2047 26 13.4297 26 16.0537V16.8117C26 19.5277 27.079 22.1327 28.999 24.0527L29 24.0537M11 24.0537H29M11 24.0537H18M29 24.0537H22M18 24.0537C18 25.1537 18.9 26.0537 20 26.0537C21.1 26.0537 22 25.1537 22 24.0537M18 24.0537H22" stroke="white" stroke-linecap="round" stroke-linejoin="round"/>
<rect x="5" y="3" width="30" height="30" rx="15" stroke="white" stroke-width="2" shape-rendering="crispEdges"/>
</g>
<defs>
<filter id="filter0_d_7602_106481" x="0" y="0" width="40" height="40" filterUnits="userSpaceOnUse" color-interpolation-filters="sRGB">
<feFlood flood-opacity="0" result="BackgroundImageFix"/>
<feColorMatrix in="SourceAlpha" type="matrix" values="0 0 0 0 0 0 0 0 0 0 0 0 0 0 0 0 0 0 127 0" result="hardAlpha"/>
<feOffset dy="2"/>
<feGaussianBlur stdDeviation="2"/>
<feComposite in2="hardAlpha" operator="out"/>
<feColorMatrix type="matrix" values="0 0 0 0 0.14902 0 0 0 0 0.882353 0 0 0 0 0.819608 0 0 0 0.24 0"/>
<feBlend mode="normal" in2="BackgroundImageFix" result="effect1_dropShadow_7602_106481"/>
<feBlend mode="normal" in="SourceGraphic" in2="effect1_dropShadow_7602_106481" result="shape"/>
</filter>
</defs>
</svg>
