<svg width="32" height="32" viewBox="0 0 32 32" fill="none" xmlns="http://www.w3.org/2000/svg">
<path d="M9.99967 18.6667L25.9997 16L27.333 8H7.33301M9.99967 18.6667L7.33301 8M9.99967 18.6667V21.3333H25.9997M7.33301 8L5.99967 4H3.33301M11.333 26C11.333 27.1053 10.4383 28 9.33301 28C8.22767 28 7.33301 27.1053 7.33301 26C7.33301 24.8947 8.22767 24 9.33301 24C10.4383 24 11.333 24.8947 11.333 26ZM27.333 26C27.333 27.1053 26.4383 28 25.333 28C24.2277 28 23.333 27.1053 23.333 26C23.333 24.8947 24.2277 24 25.333 24C26.4383 24 27.333 24.8947 27.333 26Z" stroke="#212B33" stroke-linecap="round" stroke-linejoin="round"/>
</svg>
