<svg width="40" height="40" viewBox="0 0 40 40" fill="none" xmlns="http://www.w3.org/2000/svg">
<g filter="url(#filter0_d_2144_60972)">
<rect x="6" y="4" width="28" height="28" rx="14" fill="#CC1010" shape-rendering="crispEdges"/>
<path d="M30.2635 17.0547L29.0604 14.0469C28.9583 13.7923 28.782 13.5742 28.5545 13.421C28.3269 13.2677 28.0586 13.1864 27.7842 13.1875H24.8125V12.5C24.8125 12.3177 24.7401 12.1428 24.6111 12.0139C24.4822 11.8849 24.3073 11.8125 24.125 11.8125H11.0625C10.6978 11.8125 10.3481 11.9574 10.0902 12.2152C9.83237 12.4731 9.6875 12.8228 9.6875 13.1875V22.8125C9.6875 23.1772 9.83237 23.5269 10.0902 23.7848C10.3481 24.0426 10.6978 24.1875 11.0625 24.1875H12.5234C12.6749 24.779 13.0189 25.3033 13.5013 25.6778C13.9836 26.0522 14.5769 26.2554 15.1875 26.2554C15.7981 26.2554 16.3914 26.0522 16.8737 25.6778C17.3561 25.3033 17.7001 24.779 17.8516 24.1875H22.1484C22.2999 24.779 22.6439 25.3033 23.1263 25.6778C23.6086 26.0522 24.2019 26.2554 24.8125 26.2554C25.4231 26.2554 26.0164 26.0522 26.4987 25.6778C26.9811 25.3033 27.3251 24.779 27.4766 24.1875H28.9375C29.3022 24.1875 29.6519 24.0426 29.9098 23.7848C30.1676 23.5269 30.3125 23.1772 30.3125 22.8125V17.3125C30.3126 17.2242 30.296 17.1368 30.2635 17.0547ZM15.1875 24.875C14.9156 24.875 14.6497 24.7944 14.4236 24.6433C14.1975 24.4922 14.0212 24.2774 13.9172 24.0262C13.8131 23.7749 13.7859 23.4985 13.8389 23.2318C13.892 22.965 14.0229 22.72 14.2152 22.5277C14.4075 22.3354 14.6525 22.2045 14.9193 22.1514C15.186 22.0984 15.4624 22.1256 15.7137 22.2297C15.9649 22.3337 16.1797 22.51 16.3308 22.7361C16.4819 22.9622 16.5625 23.2281 16.5625 23.5C16.5625 23.8647 16.4176 24.2144 16.1598 24.4723C15.9019 24.7301 15.5522 24.875 15.1875 24.875ZM11.0625 18.6875V13.1875H23.4375V18.6875H11.0625ZM24.8125 24.875C24.5406 24.875 24.2747 24.7944 24.0486 24.6433C23.8225 24.4922 23.6462 24.2774 23.5422 24.0262C23.4381 23.7749 23.4109 23.4985 23.4639 23.2318C23.517 22.965 23.6479 22.72 23.8402 22.5277C24.0325 22.3354 24.2775 22.2045 24.5443 22.1514C24.811 22.0984 25.0874 22.1256 25.3387 22.2297C25.5899 22.3337 25.8047 22.51 25.9558 22.7361C26.1069 22.9622 26.1875 23.2281 26.1875 23.5C26.1875 23.8647 26.0426 24.2144 25.7848 24.4723C25.5269 24.7301 25.1772 24.875 24.8125 24.875ZM24.8125 16.625V14.5625H27.7842L28.6092 16.625H24.8125Z" fill="#F9FBFF"/>
<rect x="5" y="3" width="30" height="30" rx="15" stroke="white" stroke-width="2" shape-rendering="crispEdges"/>
</g>
<defs>
<filter id="filter0_d_2144_60972" x="0" y="0" width="40" height="40" filterUnits="userSpaceOnUse" color-interpolation-filters="sRGB">
<feFlood flood-opacity="0" result="BackgroundImageFix"/>
<feColorMatrix in="SourceAlpha" type="matrix" values="0 0 0 0 0 0 0 0 0 0 0 0 0 0 0 0 0 0 127 0" result="hardAlpha"/>
<feOffset dy="2"/>
<feGaussianBlur stdDeviation="2"/>
<feComposite in2="hardAlpha" operator="out"/>
<feColorMatrix type="matrix" values="0 0 0 0 0.733333 0 0 0 0 0.0901961 0 0 0 0 0.0901961 0 0 0 0.24 0"/>
<feBlend mode="normal" in2="BackgroundImageFix" result="effect1_dropShadow_2144_60972"/>
<feBlend mode="normal" in="SourceGraphic" in2="effect1_dropShadow_2144_60972" result="shape"/>
</filter>
</defs>
</svg>
