<svg width="16" height="12" viewBox="0 0 16 12" fill="none" xmlns="http://www.w3.org/2000/svg">
<path d="M7.45007 7.04053C7.78005 7.27005 8.22002 7.27005 8.55 7.04053L15.2141 3.16803C15.2537 3.1408 15.2855 3.10367 15.3063 3.06034C15.3271 3.01701 15.3361 2.96899 15.3326 2.92107C15.329 2.87315 15.3129 2.82699 15.286 2.78721C15.259 2.74742 15.2221 2.7154 15.1789 2.69432L8.42901 0.100674C8.2957 0.0344575 8.14888 0 8.00003 0C7.85119 0 7.70436 0.0344575 7.57106 0.100674L0.821122 2.69432C0.777936 2.7154 0.741028 2.74742 0.714075 2.78721C0.687122 2.82699 0.671065 2.87315 0.667504 2.92107C0.663943 2.96899 0.673003 3.01701 0.693781 3.06034C0.714558 3.10367 0.746328 3.1408 0.785924 3.16803L7.45007 7.04053ZM15.1789 6.46123L13.356 5.55709L9.1579 7.99674C8.81399 8.22333 8.41434 8.34212 8.00003 8.34212C7.58573 8.34212 7.18608 8.2226 6.84217 7.99674L2.64701 5.55562L0.821122 6.4605C0.777936 6.48158 0.741028 6.5136 0.714075 6.55339C0.687122 6.59317 0.671065 6.63932 0.667504 6.68725C0.663943 6.73517 0.673003 6.78319 0.693781 6.82652C0.714558 6.86985 0.746328 6.90698 0.785924 6.93421L7.45007 11.5605C7.78005 11.7901 8.22002 11.7901 8.55 11.5605L15.2141 6.93421C15.2538 6.90707 15.2856 6.87001 15.3064 6.82673C15.3272 6.78346 15.3362 6.73547 15.3327 6.68759C15.3291 6.63971 15.313 6.5936 15.286 6.55387C15.2591 6.51415 15.2221 6.48221 15.1789 6.46123Z" fill="#959EB3"/>
</svg>
