<svg width="40" height="40" viewBox="0 0 40 40" fill="none" xmlns="http://www.w3.org/2000/svg">
<path d="M17.7221 10.3452C12.188 10.3452 7.49526 13.9442 5.85658 18.9296L13.0612 20.2006C13.9801 18.5768 15.723 17.4809 17.7221 17.4809C19.7213 17.4809 21.4642 18.5768 22.3831 20.2006L29.5877 18.9296C29.4977 18.744 29.4387 18.3495 29.0675 17.5766M17.7221 10.3452C19.2395 10.3452 20.6936 10.6158 22.0388 11.1113C20.7816 10.5462 18.6372 10.3651 17.7221 10.3452ZM23.0018 7.66544C21.3483 7.09003 19.5718 6.77734 17.7221 6.77734C8.85421 6.77734 1.66675 13.9648 1.66675 22.8327C1.66675 31.7007 8.85421 38.8881 17.7221 38.8881C26.5901 38.8881 33.7775 31.7007 33.7775 22.8327C33.7775 20.775 33.7775 19.2649 32.8856 16.589M5.24175 22.4421L12.4425 23.7136C12.7636 25.6529 14.1271 27.24 15.9382 27.88L15.9381 35.1938C9.88607 34.3283 5.23461 29.1243 5.23461 22.8327L5.24175 22.4421ZM23.0018 23.7136L30.2037 22.4424L30.2097 22.8327C30.2097 29.1237 25.5591 34.3273 19.508 35.1936L19.5079 27.8794C21.3181 27.239 22.6808 25.6523 23.0018 23.7136Z" stroke="#4560E4" stroke-linecap="round" stroke-linejoin="round"/>
<path d="M34.8709 13.0803L34.0255 12.031C34.4422 11.4442 34.7064 10.763 34.7944 10.0487L36.1262 9.84392C36.2799 9.82019 36.4274 9.76641 36.5603 9.68567C36.6932 9.60494 36.8089 9.49882 36.9007 9.37337C36.9926 9.24792 37.0589 9.10561 37.0958 8.95455C37.1326 8.80349 37.1394 8.64665 37.1157 8.49298C37.0919 8.33931 37.0382 8.19181 36.9574 8.05892C36.8767 7.92603 36.7706 7.81034 36.6451 7.71847C36.5197 7.62659 36.3773 7.56032 36.2263 7.52344C36.0752 7.48656 35.9184 7.4798 35.7647 7.50354L34.4296 7.71129C34.1305 7.05774 33.6737 6.48872 33.1003 6.05537L33.5881 4.79759C33.7016 4.50497 33.6943 4.17925 33.5676 3.89208C33.4409 3.60491 33.2054 3.37981 32.9128 3.2663C32.6202 3.1528 32.2944 3.16019 32.0073 3.28684C31.7201 3.41349 31.495 3.64904 31.3815 3.94166L30.8936 5.19944C30.178 5.13277 29.4569 5.24491 28.7953 5.52581L27.9496 4.47211C27.7527 4.22743 27.4667 4.07097 27.1545 4.03715C26.8423 4.00333 26.5294 4.09492 26.2848 4.29177C26.0401 4.48862 25.8836 4.7746 25.8498 5.08681C25.816 5.39902 25.9076 5.71188 26.1044 5.95656L26.9498 7.00587C26.5331 7.59264 26.2688 8.27386 26.1809 8.98816L24.8491 9.19295C24.5387 9.24089 24.2601 9.41016 24.0745 9.66351C23.889 9.91686 23.8117 10.2335 23.8596 10.5439C23.9076 10.8543 24.0768 11.1329 24.3302 11.3184C24.5835 11.504 24.9002 11.5813 25.2106 11.5333L26.5457 11.3256C26.8448 11.9791 27.3016 12.5482 27.875 12.9815L27.3871 14.2393C27.2736 14.5319 27.281 14.8576 27.4077 15.1448C27.5343 15.432 27.7699 15.6571 28.0625 15.7706C28.3551 15.8841 28.6808 15.8767 28.968 15.75C29.2552 15.6234 29.4803 15.3878 29.5938 15.0952L30.0817 13.8374C30.7973 13.9041 31.5183 13.792 32.1799 13.5111L33.0257 14.5648C33.1232 14.6859 33.2436 14.7867 33.38 14.8613C33.5164 14.936 33.6662 14.983 33.8208 14.9997C33.9754 15.0165 34.1317 15.0026 34.281 14.9589C34.4302 14.9152 34.5694 14.8426 34.6905 14.7451C34.8117 14.6476 34.9124 14.5273 34.9871 14.3908C35.0617 14.2544 35.1087 14.1047 35.1255 13.9501C35.1422 13.7955 35.1284 13.6391 35.0847 13.4899C35.041 13.3406 34.9683 13.2015 34.8709 13.0803ZM29.7744 11.3573C29.4107 11.2162 29.097 10.9705 28.8729 10.6511C28.6489 10.3318 28.5246 9.95315 28.5158 9.56316C28.5069 9.17316 28.6139 8.7893 28.8233 8.46012C29.0326 8.13094 29.3348 7.87122 29.6917 7.7138C30.0487 7.55638 30.4442 7.50834 30.8285 7.57575C31.2127 7.64316 31.5683 7.823 31.8503 8.09251C32.1323 8.36202 32.3281 8.70911 32.4129 9.08989C32.4976 9.47066 32.4676 9.86802 32.3265 10.2317C32.1373 10.7194 31.7622 11.112 31.2835 11.3231C30.8049 11.5342 30.2621 11.5465 29.7744 11.3573Z" fill="#4560E4"/>
</svg>
