<svg width="40" height="40" viewBox="0 0 40 40" fill="none" xmlns="http://www.w3.org/2000/svg">
<path d="M26.6667 20.0002C26.6667 21.2821 26.2757 22.5352 25.5431 23.6011C24.8106 24.667 23.7694 25.4977 22.5512 25.9883C21.333 26.4788 19.9926 26.6072 18.6994 26.3571C17.4062 26.107 16.2183 25.4897 15.286 24.5833C14.3536 23.6768 13.7187 22.5219 13.4614 21.2646C13.2042 20.0074 13.3362 18.7041 13.8408 17.5198C14.3454 16.3355 15.1999 15.3232 16.2962 14.611C17.3925 13.8988 18.6815 13.5187 20 13.5187C21.7681 13.5187 23.4638 14.2015 24.714 15.4171C25.9643 16.6326 26.6667 18.2812 26.6667 20.0002ZM40 9.62979V30.3705C40 30.7143 39.8595 31.0441 39.6095 31.2872C39.3594 31.5303 39.0203 31.6668 38.6667 31.6668H1.33333C0.979711 31.6668 0.640573 31.5303 0.390524 31.2872C0.140476 31.0441 0 30.7143 0 30.3705V9.62979C0 9.28599 0.140476 8.95628 0.390524 8.71317C0.640573 8.47007 0.979711 8.3335 1.33333 8.3335H38.6667C39.0203 8.3335 39.3594 8.47007 39.6095 8.71317C39.8595 8.95628 40 9.28599 40 9.62979ZM37.3333 17.1402C35.8193 16.705 34.4414 15.9084 33.325 14.8231C32.2087 13.7377 31.3893 12.398 30.9417 10.9261H9.05833C8.61067 12.398 7.79135 13.7377 6.67497 14.8231C5.5586 15.9084 4.18066 16.705 2.66667 17.1402V22.8601C4.18066 23.2953 5.5586 24.0919 6.67497 25.1773C7.79135 26.2626 8.61067 27.6023 9.05833 29.0742H30.9417C31.3893 27.6023 32.2087 26.2626 33.325 25.1773C34.4414 24.0919 35.8193 23.2953 37.3333 22.8601V17.1402Z" fill="#4560E4"/>
</svg>
